<svg xmlns="http://www.w3.org/2000/svg" viewBox="0 0 100 100">
  <path d="M91.7,2.7C89.7,2,87.5,3,86.8,5C86.7,5.4,72.2,43.9,50,43.9C27.9,43.9,13.3,5.4,13.2,5c-0.7-2-2.9-3-4.9-2.3c-2,0.7-3,2.9-2.3,4.9c0.6,1.7,15.1,40,40.2,43.6V61c1.4,0.6,2.7,1.4,3.8,2.4c1.2-1,2.5-1.8,3.8-2.4v-9.8C78.9,47.6,93.4,9.4,94,7.7C94.7,5.7,93.7,3.5,91.7,2.7z"/>
  <path d="M64.4,65.2c-4-2.1-9-1.1-12.2,2.2L50,69.5l-2.4-2.4c-4.8-4.8-13.1-3.9-16.6,2.7c-2.1,4-1.1,9,2.2,12.2l14.6,14.6c1.2,1.2,3.2,1.2,4.5,0L67,81.8C71.8,77,71,68.6,64.4,65.2z"/>
</svg>
