<svg xmlns="http://www.w3.org/2000/svg" viewBox="0 0 100 100">
  <path d="m50 21.801c4.8984 0 10.102 0 15.5-0.30078 4.3008-0.19922 8.3984-0.5 12.398-0.80078v-7.6016c-5.5 0.39844-11.102 0.69922-16.898 0.89844-3.6992 0.10156-6.8984 0.19922-10.898 0.19922s-7.1992-0.10156-10.898-0.19922c-5.8008-0.19922-11.5-0.5-16.898-0.89844v7.6016c4 0.30078 8.1016 0.60156 12.398 0.80078 5.1953 0.19922 10.398 0.30078 15.297 0.30078z"/>
  <path d="m94.398 70.301c-1.1016-2.3984-2.1016-4.8984-3-7.5l-12.598-38.5c-4.8008 0.5-9.8008 1-15.102 1.1992-4.8008 0.30078-9.3008 0.39844-13.699 0.39844s-8.8984-0.10156-13.699-0.39844c-5.3008-0.19922-10.301-0.69922-15.102-1.1992l-12.598 38.5c-0.80078 2.6016-1.8008 5.1016-3 7.5l-3.1016 6.6992c5.1016 2.3008 11.102 4.5 18 6.3008 11.398 3 21.102 3.6992 29.5 3.6992s18.102-0.69922 29.5-3.6992c6.8984-1.8008 12.898-4.1016 18-6.3008z"/>
</svg>
