<svg xmlns="http://www.w3.org/2000/svg" viewBox="0 0 100 100">
  <path d="m24.648 86.59c-0.71094-0.22656-1.082-1.0039-0.83594-1.7031 4.7578-13.508 7.1328-25.59 11.551-33.574 1.2188-2.2031 3.2109-5.2852 3.3906-8.3359 0.19531-3.2734-1.4922-6.5117-2.3828-8.6016-1.3789-3.2422-2.2617-6.7734-0.67578-12.836 0.59375-2.2734 0.87109-8.2656 0.96875-10.895 0.027344-0.71094 0.60938-1.2695 1.3203-1.2695h1.2773c0.65625 0 1.2148 0.48047 1.3047 1.1289 1.3008 9.5938 8.0156 15.57 9.4414 16.238 1.4258-0.66797 8.1406-6.6445 9.4414-16.238 0.089843-0.64844 0.64844-1.1289 1.3047-1.1289h1.2773c0.71094 0 1.293 0.55859 1.3203 1.2695 0.097657 2.6289 0.375 8.6211 0.96875 10.895 1.582 6.0625 0.70313 9.5938-0.67578 12.836-0.89062 2.0898-2.5781 5.3281-2.3828 8.6016 0.17969 3.0508 2.1719 6.1328 3.3906 8.3359 4.4141 7.9844 6.793 20.066 11.551 33.578 0.24609 0.70312-0.125 1.4805-0.83594 1.7031-16.875 5.3789-33.777 5.3789-50.707 0z"/>
</svg>
